<mxfile host="app.diagrams.net" modified="2023-05-13T21:09:04.093Z" agent="Mozilla/5.0 (Windows NT 10.0; Win64; x64) AppleWebKit/537.36 (KHTML, like Gecko) Chrome/113.0.0.0 Safari/537.36" etag="nUsd8fkuTNjAhOv8Nau8" version="21.3.0" type="github">
  <diagram name="Page-1" id="lSAiewkSidiWHItB0dYV">
    <mxGraphModel dx="700" dy="369" grid="1" gridSize="10" guides="1" tooltips="1" connect="1" arrows="1" fold="1" page="1" pageScale="1" pageWidth="827" pageHeight="1169" math="0" shadow="0">
      <root>
        <mxCell id="0" />
        <mxCell id="1" parent="0" />
        <mxCell id="q2g75bmNKRoyMna3hF0H-6" style="edgeStyle=orthogonalEdgeStyle;rounded=0;orthogonalLoop=1;jettySize=auto;html=1;entryX=0.012;entryY=0.434;entryDx=0;entryDy=0;entryPerimeter=0;" edge="1" parent="1" source="q2g75bmNKRoyMna3hF0H-1" target="q2g75bmNKRoyMna3hF0H-2">
          <mxGeometry relative="1" as="geometry" />
        </mxCell>
        <mxCell id="q2g75bmNKRoyMna3hF0H-1" value="Base Object" style="rounded=1;whiteSpace=wrap;html=1;fillColor=#ffe6cc;strokeColor=#d79b00;" vertex="1" parent="1">
          <mxGeometry x="50" y="265" width="80" height="50" as="geometry" />
        </mxCell>
        <mxCell id="q2g75bmNKRoyMna3hF0H-19" style="edgeStyle=orthogonalEdgeStyle;rounded=0;orthogonalLoop=1;jettySize=auto;html=1;exitX=0.5;exitY=1;exitDx=0;exitDy=0;entryX=0;entryY=0.5;entryDx=0;entryDy=0;" edge="1" parent="1" source="q2g75bmNKRoyMna3hF0H-2" target="q2g75bmNKRoyMna3hF0H-17">
          <mxGeometry relative="1" as="geometry" />
        </mxCell>
        <mxCell id="q2g75bmNKRoyMna3hF0H-25" style="edgeStyle=orthogonalEdgeStyle;rounded=0;orthogonalLoop=1;jettySize=auto;html=1;exitX=0.5;exitY=1;exitDx=0;exitDy=0;entryX=0;entryY=0.5;entryDx=0;entryDy=0;" edge="1" parent="1" source="q2g75bmNKRoyMna3hF0H-2" target="q2g75bmNKRoyMna3hF0H-20">
          <mxGeometry relative="1" as="geometry" />
        </mxCell>
        <mxCell id="q2g75bmNKRoyMna3hF0H-29" style="edgeStyle=orthogonalEdgeStyle;rounded=0;orthogonalLoop=1;jettySize=auto;html=1;exitX=0.5;exitY=0;exitDx=0;exitDy=0;entryX=0;entryY=0.5;entryDx=0;entryDy=0;" edge="1" parent="1" source="q2g75bmNKRoyMna3hF0H-2" target="q2g75bmNKRoyMna3hF0H-15">
          <mxGeometry relative="1" as="geometry" />
        </mxCell>
        <mxCell id="q2g75bmNKRoyMna3hF0H-2" value="Observed Object" style="rounded=1;whiteSpace=wrap;html=1;fillColor=#d5e8d4;strokeColor=#82b366;" vertex="1" parent="1">
          <mxGeometry x="210" y="270" width="80" height="45" as="geometry" />
        </mxCell>
        <mxCell id="q2g75bmNKRoyMna3hF0H-38" style="edgeStyle=orthogonalEdgeStyle;rounded=0;orthogonalLoop=1;jettySize=auto;html=1;exitX=0.5;exitY=0;exitDx=0;exitDy=0;entryX=0;entryY=0.5;entryDx=0;entryDy=0;" edge="1" parent="1" source="q2g75bmNKRoyMna3hF0H-15" target="q2g75bmNKRoyMna3hF0H-31">
          <mxGeometry relative="1" as="geometry" />
        </mxCell>
        <mxCell id="q2g75bmNKRoyMna3hF0H-39" style="edgeStyle=orthogonalEdgeStyle;rounded=0;orthogonalLoop=1;jettySize=auto;html=1;exitX=0.5;exitY=0;exitDx=0;exitDy=0;entryX=0;entryY=0.5;entryDx=0;entryDy=0;" edge="1" parent="1" source="q2g75bmNKRoyMna3hF0H-15" target="q2g75bmNKRoyMna3hF0H-32">
          <mxGeometry relative="1" as="geometry" />
        </mxCell>
        <mxCell id="q2g75bmNKRoyMna3hF0H-42" style="edgeStyle=orthogonalEdgeStyle;rounded=0;orthogonalLoop=1;jettySize=auto;html=1;exitX=1;exitY=0.75;exitDx=0;exitDy=0;entryX=0;entryY=0.5;entryDx=0;entryDy=0;" edge="1" parent="1" source="q2g75bmNKRoyMna3hF0H-15" target="q2g75bmNKRoyMna3hF0H-33">
          <mxGeometry relative="1" as="geometry" />
        </mxCell>
        <mxCell id="q2g75bmNKRoyMna3hF0H-44" style="edgeStyle=orthogonalEdgeStyle;rounded=0;orthogonalLoop=1;jettySize=auto;html=1;exitX=0.5;exitY=1;exitDx=0;exitDy=0;entryX=0;entryY=0.75;entryDx=0;entryDy=0;" edge="1" parent="1" source="q2g75bmNKRoyMna3hF0H-15" target="q2g75bmNKRoyMna3hF0H-34">
          <mxGeometry relative="1" as="geometry" />
        </mxCell>
        <mxCell id="q2g75bmNKRoyMna3hF0H-45" style="edgeStyle=orthogonalEdgeStyle;rounded=0;orthogonalLoop=1;jettySize=auto;html=1;exitX=0.5;exitY=1;exitDx=0;exitDy=0;entryX=0;entryY=0.75;entryDx=0;entryDy=0;" edge="1" parent="1" source="q2g75bmNKRoyMna3hF0H-15" target="q2g75bmNKRoyMna3hF0H-35">
          <mxGeometry relative="1" as="geometry" />
        </mxCell>
        <mxCell id="q2g75bmNKRoyMna3hF0H-15" value="Star" style="rounded=1;whiteSpace=wrap;html=1;fillColor=#d5e8d4;strokeColor=#82b366;" vertex="1" parent="1">
          <mxGeometry x="280" y="160" width="120" height="60" as="geometry" />
        </mxCell>
        <mxCell id="q2g75bmNKRoyMna3hF0H-49" style="edgeStyle=orthogonalEdgeStyle;rounded=0;orthogonalLoop=1;jettySize=auto;html=1;exitX=1;exitY=0.5;exitDx=0;exitDy=0;" edge="1" parent="1" source="q2g75bmNKRoyMna3hF0H-17">
          <mxGeometry relative="1" as="geometry">
            <mxPoint x="429.9999999999998" y="440.2941176470589" as="targetPoint" />
          </mxGeometry>
        </mxCell>
        <mxCell id="q2g75bmNKRoyMna3hF0H-17" value="Black Hole" style="rounded=0;whiteSpace=wrap;html=1;fillColor=#d5e8d4;strokeColor=#82b366;" vertex="1" parent="1">
          <mxGeometry x="280" y="410" width="120" height="60" as="geometry" />
        </mxCell>
        <mxCell id="q2g75bmNKRoyMna3hF0H-47" style="edgeStyle=orthogonalEdgeStyle;rounded=0;orthogonalLoop=1;jettySize=auto;html=1;exitX=1;exitY=0.5;exitDx=0;exitDy=0;" edge="1" parent="1" source="q2g75bmNKRoyMna3hF0H-20">
          <mxGeometry relative="1" as="geometry">
            <mxPoint x="429.9999999999998" y="370.2941176470589" as="targetPoint" />
          </mxGeometry>
        </mxCell>
        <mxCell id="q2g75bmNKRoyMna3hF0H-20" value="Planet" style="rounded=0;whiteSpace=wrap;html=1;fillColor=#d5e8d4;strokeColor=#82b366;" vertex="1" parent="1">
          <mxGeometry x="280" y="340" width="120" height="60" as="geometry" />
        </mxCell>
        <mxCell id="q2g75bmNKRoyMna3hF0H-31" value="Base Star" style="rounded=1;whiteSpace=wrap;html=1;fillColor=#f8cecc;strokeColor=#b85450;" vertex="1" parent="1">
          <mxGeometry x="420" y="90" width="90" height="40" as="geometry" />
        </mxCell>
        <mxCell id="q2g75bmNKRoyMna3hF0H-32" value="Red Giant" style="rounded=1;whiteSpace=wrap;html=1;fillColor=#f8cecc;strokeColor=#b85450;" vertex="1" parent="1">
          <mxGeometry x="420" y="140" width="90" height="40" as="geometry" />
        </mxCell>
        <mxCell id="q2g75bmNKRoyMna3hF0H-33" value="Red Super Giant" style="rounded=1;whiteSpace=wrap;html=1;fillColor=#f8cecc;strokeColor=#b85450;" vertex="1" parent="1">
          <mxGeometry x="420" y="190" width="90" height="40" as="geometry" />
        </mxCell>
        <mxCell id="q2g75bmNKRoyMna3hF0H-34" value="White Dwarf" style="rounded=1;whiteSpace=wrap;html=1;fillColor=#f8cecc;strokeColor=#b85450;" vertex="1" parent="1">
          <mxGeometry x="420" y="240" width="90" height="40" as="geometry" />
        </mxCell>
        <mxCell id="q2g75bmNKRoyMna3hF0H-35" value="Neutron Star" style="rounded=1;whiteSpace=wrap;html=1;fillColor=#f8cecc;strokeColor=#b85450;" vertex="1" parent="1">
          <mxGeometry x="420" y="290" width="90" height="40" as="geometry" />
        </mxCell>
        <mxCell id="q2g75bmNKRoyMna3hF0H-50" value="" style="endArrow=none;dashed=1;html=1;dashPattern=1 3;strokeWidth=2;rounded=0;" edge="1" parent="1">
          <mxGeometry width="50" height="50" relative="1" as="geometry">
            <mxPoint x="440" y="470" as="sourcePoint" />
            <mxPoint x="440" y="350" as="targetPoint" />
          </mxGeometry>
        </mxCell>
        <mxCell id="q2g75bmNKRoyMna3hF0H-51" value="" style="endArrow=none;dashed=1;html=1;dashPattern=1 3;strokeWidth=2;rounded=0;" edge="1" parent="1">
          <mxGeometry width="50" height="50" relative="1" as="geometry">
            <mxPoint x="440" y="350" as="sourcePoint" />
            <mxPoint x="510" y="350" as="targetPoint" />
          </mxGeometry>
        </mxCell>
        <mxCell id="q2g75bmNKRoyMna3hF0H-52" value="" style="endArrow=none;dashed=1;html=1;dashPattern=1 3;strokeWidth=2;rounded=0;" edge="1" parent="1">
          <mxGeometry width="50" height="50" relative="1" as="geometry">
            <mxPoint x="509.99999999999994" y="470" as="sourcePoint" />
            <mxPoint x="510.59" y="350" as="targetPoint" />
          </mxGeometry>
        </mxCell>
        <mxCell id="q2g75bmNKRoyMna3hF0H-53" value="" style="endArrow=none;dashed=1;html=1;dashPattern=1 3;strokeWidth=2;rounded=0;" edge="1" parent="1">
          <mxGeometry width="50" height="50" relative="1" as="geometry">
            <mxPoint x="440" y="470" as="sourcePoint" />
            <mxPoint x="510" y="470" as="targetPoint" />
          </mxGeometry>
        </mxCell>
        <mxCell id="q2g75bmNKRoyMna3hF0H-55" value="?" style="text;html=1;strokeColor=none;fillColor=none;align=center;verticalAlign=middle;whiteSpace=wrap;rounded=0;" vertex="1" parent="1">
          <mxGeometry x="440" y="400" width="60" height="30" as="geometry" />
        </mxCell>
      </root>
    </mxGraphModel>
  </diagram>
</mxfile>
